<?xml version="1.0" standalone="yes"?>
<svg xmlns="http://www.w3.org/2000/svg" width="545" height="551">
<path style="fill:#ffffff; stroke:none;" d="M0 0L0 551L545 551L545 0L0 0z"/>
<path style="fill:#231f21; stroke:none;" d="M295 55L295 169L324 157.808L334.972 153.272L336 127L336 55L295 55z"/>
<path style="fill:#dea29f; stroke:none;" d="M237 92L237 174C237 180.436 234.035 197.662 239 202C233.14 177.385 238 146.32 238 121C238 112.466 240.306 99.879 237 92z"/>
<path style="fill:#696767; stroke:none;" d="M238 92L238 93L279 93C268.25 88.4892 249.696 92 238 92z"/>
<path style="fill:#231f21; stroke:none;" d="M238 93L238 201L265 185.281L276.972 177.61L278 154L279 93L238 93z"/>
<path style="fill:#696767; stroke:none;" d="M278 94L279 95L278 94M278 96L279 97L278 96M278 98L278 178L279 178L279 123L278 98M180 130L180 247L181 247L181 166L180 130z"/>
<path style="fill:#231f21; stroke:none;" d="M181 130L181 247L208 224.084L219.972 213.711L221 190L221 130L181 130z"/>
<path style="fill:#696767; stroke:none;" d="M221 130L221 213L222 213L222 156L221 130z"/>
<path style="fill:#ef433c; stroke:none;" d="M348 150L351 165C327.065 168.226 301.968 181.324 281 192.691C222.529 224.39 168.784 269.357 131.667 325C117.679 345.969 100.897 370.114 95 395L96 395C110.141 369.599 130.55 346.45 151 326C193.922 283.078 244.577 248.129 302 227.692C321.066 220.906 340.537 218.687 360 214L363 227L417 189.151L438 172L348 150z"/>
<path style="fill:#dea29f; stroke:none;" d="M350.667 150.333L351.333 150.667L350.667 150.333M354.667 151.333L355.333 151.667L354.667 151.333M348 152L348 155L349 155L348 152M358.667 152.333L359.333 152.667L358.667 152.333M362.667 153.333L363.333 153.667L362.667 153.333z"/>
<path style="fill:#696767; stroke:none;" d="M334 154L335 155L334 154z"/>
<path style="fill:#dea29f; stroke:none;" d="M335 154L336 155L335 154M366.667 154.333L367.333 154.667L366.667 154.333z"/>
<path style="fill:#696767; stroke:none;" d="M330 155L331 156L330 155z"/>
<path style="fill:#dea29f; stroke:none;" d="M331 155L332 156L331 155M370.667 155.333L371.333 155.667L370.667 155.333z"/>
<path style="fill:#696767; stroke:none;" d="M327 156L328 157L327 156z"/>
<path style="fill:#dea29f; stroke:none;" d="M328 156L329 157L328 156M374.667 156.333L375.333 156.667L374.667 156.333z"/>
<path style="fill:#696767; stroke:none;" d="M324 157L325 158L324 157z"/>
<path style="fill:#dea29f; stroke:none;" d="M325 157L326 158L325 157M349 157L349 160L350 160L349 157M378.667 157.333L379.333 157.667L378.667 157.333M322 158L323 159L322 158M382.667 158.333L383.333 158.667L382.667 158.333z"/>
<path style="fill:#696767; stroke:none;" d="M319 159L320 160L319 159z"/>
<path style="fill:#dea29f; stroke:none;" d="M320 159L321 160L320 159M385 159L385 160L388 160L385 159z"/>
<path style="fill:#696767; stroke:none;" d="M316 160L317 161L316 160z"/>
<path style="fill:#dea29f; stroke:none;" d="M317 160L318 161L317 160M390.667 160.333L391.333 160.667L390.667 160.333M314 161L315 162L314 161M394.667 161.333L395.333 161.667L394.667 161.333z"/>
<path style="fill:#696767; stroke:none;" d="M311 162L312 163L311 162z"/>
<path style="fill:#dea29f; stroke:none;" d="M312 162L313 163L312 162M350 162L349 165L350 162M398.667 162.333L399.333 162.667L398.667 162.333z"/>
<path style="fill:#696767; stroke:none;" d="M309 163L310 164L309 163z"/>
<path style="fill:#dea29f; stroke:none;" d="M402.667 163.333L403.333 163.667L402.667 163.333z"/>
<path style="fill:#696767; stroke:none;" d="M306 164L307 165L306 164z"/>
<path style="fill:#dea29f; stroke:none;" d="M307 164L308 165L307 164M406.667 164.333L407.333 164.667L406.667 164.333z"/>
<path style="fill:#696767; stroke:none;" d="M304 165L305 166L304 165z"/>
<path style="fill:#dea29f; stroke:none;" d="M346.667 165.333L347.333 165.667L346.667 165.333M410.667 165.333L411.333 165.667L410.667 165.333z"/>
<path style="fill:#696767; stroke:none;" d="M123.667 166.333L124.333 166.667L123.667 166.333z"/>
<path style="fill:#dea29f; stroke:none;" d="M125 166L126 167L125 166z"/>
<path style="fill:#696767; stroke:none;" d="M126 166L126 167L161 167L126 166z"/>
<path style="fill:#dea29f; stroke:none;" d="M161 166L162 167L161 166z"/>
<path style="fill:#696767; stroke:none;" d="M162.667 166.333L163.333 166.667L162.667 166.333z"/>
<path style="fill:#dea29f; stroke:none;" d="M302 166L303 167L302 166M342.667 166.333L343.333 166.667L342.667 166.333M414.667 166.333L415.333 166.667L414.667 166.333z"/>
<path style="fill:#231f21; stroke:none;" d="M123 167L123 314L124 314L150.754 279L163.142 264L164 234L164 167L123 167z"/>
<path style="fill:#dea29f; stroke:none;" d="M164 167L164 261L165 261L165 196L164 167z"/>
<path style="fill:#696767; stroke:none;" d="M299 167L300 168L299 167z"/>
<path style="fill:#dea29f; stroke:none;" d="M300 167L301 168L300 167M339.667 167.333L340.333 167.667L339.667 167.333M418.667 167.333L419.333 167.667L418.667 167.333z"/>
<path style="fill:#696767; stroke:none;" d="M297 168L298 169L297 168z"/>
<path style="fill:#dea29f; stroke:none;" d="M336.667 168.333L337.333 168.667L336.667 168.333M422.667 168.333L423.333 168.667L422.667 168.333M295 169L296 170L295 169M333.667 169.333L334.333 169.667L333.667 169.333M426.667 169.333L427.333 169.667L426.667 169.333M330.667 170.333L331.333 170.667L330.667 170.333M430.667 170.333L431.333 170.667L430.667 170.333M328 171L329 172L328 171M434.667 171.333L435.333 171.667L434.667 171.333M325 172L326 173L325 172M438 172L438 174L440 172L438 172M322.667 173.333L323.333 173.667L322.667 173.333M320 174L321 175L320 174M437 174L438 175L437 174M317 175L318 176L317 175M314.667 176.333L315.333 176.667L314.667 176.333M434 176L435 177L434 176M312 177L313 178L312 177M433 177L434 178L433 177M277 178L278 179L277 178M309.667 178.333L310.333 178.667L309.667 178.333M431 178L432 179L431 178z"/>
<path style="fill:#696767; stroke:none;" d="M275 179L276 180L275 179z"/>
<path style="fill:#dea29f; stroke:none;" d="M307 179L308 180L307 179M430 179L431 180L430 179z"/>
<path style="fill:#696767; stroke:none;" d="M273 180L274 181L273 180z"/>
<path style="fill:#dea29f; stroke:none;" d="M305 180L306 181L305 180z"/>
<path style="fill:#696767; stroke:none;" d="M271 181L272 182L271 181z"/>
<path style="fill:#dea29f; stroke:none;" d="M303 181L304 182L303 181M427 181L428 182L427 181z"/>
<path style="fill:#696767; stroke:none;" d="M269 182L270 183L269 182z"/>
<path style="fill:#dea29f; stroke:none;" d="M300.667 182.333L301.333 182.667L300.667 182.333M426 182L427 183L426 182M268 183L269 184L268 183M298.667 183.333L299.333 183.667L298.667 183.333M266 184L267 185L266 184M296 184L297 185L296 184M423 184L424 185L423 184z"/>
<path style="fill:#696767; stroke:none;" d="M264 185L265 186L264 185z"/>
<path style="fill:#dea29f; stroke:none;" d="M294 185L295 186L294 185z"/>
<path style="fill:#696767; stroke:none;" d="M262 186L263 187L262 186z"/>
<path style="fill:#dea29f; stroke:none;" d="M292 186L293 187L292 186M420 186L421 187L420 186M261 187L262 188L261 187M290 187L291 188L290 187M419 187L420 188L419 187z"/>
<path style="fill:#696767; stroke:none;" d="M259 188L260 189L259 188z"/>
<path style="fill:#dea29f; stroke:none;" d="M288 188L289 189L288 188M417 188L418 189L417 188z"/>
<path style="fill:#696767; stroke:none;" d="M257 189L258 190L257 189z"/>
<path style="fill:#dea29f; stroke:none;" d="M286 189L287 190L286 189M416 189L417 190L416 189M256 190L257 191L256 190M284 190L285 191L284 190M415 190L416 191L415 190M254 191L255 192L254 191M282.667 191.333L283.333 191.667L282.667 191.333M413 191L414 192L413 191z"/>
<path style="fill:#696767; stroke:none;" d="M252 192L253 193L252 192z"/>
<path style="fill:#dea29f; stroke:none;" d="M280.667 192.333L281.333 192.667L280.667 192.333M412 192L413 193L412 192M251 193L252 194L251 193M279 193L280 194L279 193M249 194L250 195L249 194M277 194L278 195L277 194z"/>
<path style="fill:#696767; stroke:none;" d="M408 194L409 195L408 194z"/>
<path style="fill:#dea29f; stroke:none;" d="M409 194L410 195L409 194z"/>
<path style="fill:#696767; stroke:none;" d="M247 195L248 196L247 195z"/>
<path style="fill:#dea29f; stroke:none;" d="M275 195L276 196L275 195M246 196L247 197L246 196M273 196L274 197L273 196M406 196L407 197L406 196z"/>
<path style="fill:#696767; stroke:none;" d="M244 197L245 198L244 197z"/>
<path style="fill:#dea29f; stroke:none;" d="M271.667 197.333L272.333 197.667L271.667 197.333M405 197L406 198L405 197M243 198L244 199L243 198M270 198L271 199L270 198M403 198L404 199L403 198z"/>
<path style="fill:#696767; stroke:none;" d="M241 199L242 200L241 199z"/>
<path style="fill:#dea29f; stroke:none;" d="M268 199L269 200L268 199M402 199L403 200L402 199z"/>
<path style="fill:#696767; stroke:none;" d="M239 200L240 201L239 200z"/>
<path style="fill:#dea29f; stroke:none;" d="M266 200L267 201L266 200M401 200L402 201L401 200M265 201L266 202L265 201M399 201L400 202L399 201M263 202L264 203L263 202M398 202L399 203L398 202M261 203L262 204L261 203M259 204L260 205L259 204M395 204L396 205L395 204M258 205L259 206L258 205M394 205L395 206L394 205M256 206L257 207L256 206M392 206L393 207L392 206M255 207L256 208L255 207M391 207L392 208L391 207M253 208L254 209L253 208M389 208L390 209L389 208M252 209L253 210L252 209M388 209L389 210L388 209M250 210L251 211L250 210M249 211L250 212L249 211M385 211L386 212L385 211M247 212L248 213L247 212M384 212L385 213L384 212M221 213L222 214L221 213M220 214L221 215L220 214M244 214L245 215L244 214M358.667 214.333L359.333 214.667L358.667 214.333M381 214L382 215L381 214z"/>
<path style="fill:#696767; stroke:none;" d="M218 215L219 216L218 215z"/>
<path style="fill:#dea29f; stroke:none;" d="M351 215L351 216L355 216L351 215M360 215L360 218L361 218L360 215M380 215L381 216L380 215z"/>
<path style="fill:#696767; stroke:none;" d="M217 216L218 217L217 216z"/>
<path style="fill:#dea29f; stroke:none;" d="M241 216L242 217L241 216M344 216L344 217L348 217L344 216M378 216L379 217L378 216M216 217L217 218L216 217M240 217L241 218L240 217M338 217L338 218L342 218L338 217M377 217L378 218L377 217M215 218L216 219L215 218M238 218L239 219L238 218M334.667 218.333L335.333 218.667L334.667 218.333z"/>
<path style="fill:#696767; stroke:none;" d="M213 219L214 220L213 219z"/>
<path style="fill:#dea29f; stroke:none;" d="M237 219L238 220L237 219M330.667 219.333L331.333 219.667L330.667 219.333M374 219L375 220L374 219z"/>
<path style="fill:#696767; stroke:none;" d="M212 220L213 221L212 220z"/>
<path style="fill:#dea29f; stroke:none;" d="M235 220L236 221L235 220M326.667 220.333L327.333 220.667L326.667 220.333M361 220L361 223L362 223L361 220M373 220L374 221L373 220z"/>
<path style="fill:#696767; stroke:none;" d="M419 220L420 221L419 220z"/>
<path style="fill:#dea29f; stroke:none;" d="M211 221L212 222L211 221M234 221L235 222L234 221M322.667 221.333L323.333 221.667L322.667 221.333M371 221L372 222L371 221z"/>
<path style="fill:#231f21; stroke:none;" d="M418 221C405.382 232.51 389.284 234.597 373 236.718C364.366 237.843 352.242 238.174 348 247C321.014 241.972 295.447 253.177 271 263.719C225.658 283.271 185.313 309.361 150.015 343.961C137.705 356.027 123.663 368.941 115 384C129.405 374.999 142.382 364.484 158 357.309C206.268 335.133 261.446 327.371 314 334.282C343.047 338.101 370.274 345.916 397 357.861C407.373 362.497 419.625 373.377 430.906 364.431C446.987 351.679 427.73 332.236 421.608 320C418.424 313.637 416.197 306.751 414 300C427.793 305.818 437.113 294.474 440 282C432.421 286.672 420.249 294.123 411.213 288.062C405.204 284.031 402.591 273.014 398.771 267.004C393.951 259.422 385.997 254.738 378 251L378 250C392.725 249.366 416.038 237.565 418 221z"/>
<path style="fill:#696767; stroke:none;" d="M209 222L210 223L209 222z"/>
<path style="fill:#dea29f; stroke:none;" d="M232 222L233 223L232 222M318.667 222.333L319.333 222.667L318.667 222.333M370 222L371 223L370 222M418 222L419 223L418 222z"/>
<path style="fill:#696767; stroke:none;" d="M208 223L209 224L208 223z"/>
<path style="fill:#dea29f; stroke:none;" d="M231 223L232 224L231 223M315 223L316 224L315 223M415 223L416 224L415 223z"/>
<path style="fill:#696767; stroke:none;" d="M417 223L418 224L417 223z"/>
<path style="fill:#dea29f; stroke:none;" d="M207 224L208 225L207 224M230 224L231 225L230 224M311.667 224.333L312.333 224.667L311.667 224.333M367 224L368 225L367 224z"/>
<path style="fill:#696767; stroke:none;" d="M414 224L415 225L414 224z"/>
<path style="fill:#dea29f; stroke:none;" d="M206 225L207 226L206 225M308.667 225.333L309.333 225.667L308.667 225.333M366 225L367 226L366 225M412 225L413 226L412 225z"/>
<path style="fill:#696767; stroke:none;" d="M416 225L417 226L416 225z"/>
<path style="fill:#dea29f; stroke:none;" d="M227 226L228 227L227 226M305 226L306 227L305 226M362 226L362 228L364 228L362 226M364 226L365 227L364 226z"/>
<path style="fill:#696767; stroke:none;" d="M411 226L412 227L411 226M415 226L416 227L415 226M203 227L204 228L203 227z"/>
<path style="fill:#dea29f; stroke:none;" d="M226 227L227 228L226 227M302.667 227.333L303.333 227.667L302.667 227.333M409 227L410 228L409 227M202 228L203 229L202 228M224 228L225 229L224 228M299.667 228.333L300.333 228.667L299.667 228.333M407 228L408 229L407 228M414 228L415 229L414 228M201 229L202 230L201 229M223 229L224 230L223 229M297 229L298 230L297 229z"/>
<path style="fill:#696767; stroke:none;" d="M405 229L406 230L405 229M413 229L414 230L413 229z"/>
<path style="fill:#dea29f; stroke:none;" d="M222 230L223 231L222 230M294 230L295 231L294 230M402 230L403 231L402 230z"/>
<path style="fill:#696767; stroke:none;" d="M403 230L404 231L403 230z"/>
<path style="fill:#dea29f; stroke:none;" d="M291.667 231.333L292.333 231.667L291.667 231.333M399 231L400 232L399 231z"/>
<path style="fill:#696767; stroke:none;" d="M400 231L401 232L400 231M197 232L198 233L197 232z"/>
<path style="fill:#dea29f; stroke:none;" d="M219 232L220 233L219 232M289 232L290 233L289 232M396 232L397 233L396 232z"/>
<path style="fill:#696767; stroke:none;" d="M397 232L398 233L397 232z"/>
<path style="fill:#dea29f; stroke:none;" d="M411 232L412 233L411 232z"/>
<path style="fill:#696767; stroke:none;" d="M196 233L197 234L196 233z"/>
<path style="fill:#dea29f; stroke:none;" d="M218 233L219 234L218 233M286.667 233.333L287.333 233.667L286.667 233.333M391.667 233.333L392.333 233.667L391.667 233.333z"/>
<path style="fill:#696767; stroke:none;" d="M393 233L394 234L393 233z"/>
<path style="fill:#dea29f; stroke:none;" d="M410 233L411 234L410 233M195 234L196 235L195 234M217 234L218 235L217 234M284 234L285 235L284 234M385.667 234.333L386.333 234.667L385.667 234.333z"/>
<path style="fill:#696767; stroke:none;" d="M387.667 234.333L388.333 234.667L387.667 234.333M409 234L410 235L409 234z"/>
<path style="fill:#dea29f; stroke:none;" d="M194 235L195 236L194 235M281.667 235.333L282.333 235.667L281.667 235.333M377.667 235.333L378.333 235.667L377.667 235.333z"/>
<path style="fill:#696767; stroke:none;" d="M379 235L379 236L383 236L379 235M408 235L409 236L408 235z"/>
<path style="fill:#dea29f; stroke:none;" d="M214 236L215 237L214 236M279 236L280 237L279 236M370 236L371 237L370 236z"/>
<path style="fill:#696767; stroke:none;" d="M371 236L371 237L375 237L371 236M407 236L408 237L407 236M191 237L192 238L191 237z"/>
<path style="fill:#dea29f; stroke:none;" d="M213 237L214 238L213 237M277 237L278 238L277 237M364 237L365 238L364 237z"/>
<path style="fill:#696767; stroke:none;" d="M365.667 237.333L366.333 237.667L365.667 237.333M406 237L407 238L406 237M190 238L191 239L190 238z"/>
<path style="fill:#dea29f; stroke:none;" d="M212 238L213 239L212 238M275 238L276 239L275 238M359 238L360 239L359 238z"/>
<path style="fill:#696767; stroke:none;" d="M360.667 238.333L361.333 238.667L360.667 238.333M405 238L406 239L405 238M189 239L190 240L189 239z"/>
<path style="fill:#dea29f; stroke:none;" d="M273 239L274 240L273 239M356 239L357 240L356 239z"/>
<path style="fill:#696767; stroke:none;" d="M357 239L358 240L357 239M404 239L405 240L404 239M188 240L189 241L188 240z"/>
<path style="fill:#dea29f; stroke:none;" d="M209 240L210 241L209 240M270 240L271 241L270 240M353 240L354 241L353 240z"/>
<path style="fill:#696767; stroke:none;" d="M354 240L355 241L354 240M403 240L404 241L403 240z"/>
<path style="fill:#dea29f; stroke:none;" d="M187 241L188 242L187 241M208 241L209 242L208 241M268 241L269 242L268 241M351 241L352 242L351 241M402 241L403 242L402 241M186 242L187 243L186 242M207 242L208 243L207 242M266 242L267 243L266 242z"/>
<path style="fill:#696767; stroke:none;" d="M350 242L351 243L350 242z"/>
<path style="fill:#dea29f; stroke:none;" d="M401 242L402 243L401 242M185 243L186 244L185 243M206 243L207 244L206 243M264 243L265 244L264 243z"/>
<path style="fill:#696767; stroke:none;" d="M349 243L350 244L349 243M399 243L400 244L399 243z"/>
<path style="fill:#dea29f; stroke:none;" d="M184 244L185 245L184 244M262 244L263 245L262 244z"/>
<path style="fill:#696767; stroke:none;" d="M348 244L349 245L348 244z"/>
<path style="fill:#dea29f; stroke:none;" d="M398 244L399 245L398 244M260 245L261 246L260 245M323 245L324 246L323 245z"/>
<path style="fill:#696767; stroke:none;" d="M324 245L324 246L328 246L324 245M338 245L338 246L342 246L338 245z"/>
<path style="fill:#dea29f; stroke:none;" d="M342.667 245.333L343.333 245.667L342.667 245.333M347 245L348 246L347 245z"/>
<path style="fill:#696767; stroke:none;" d="M396 245L397 246L396 245z"/>
<path style="fill:#dea29f; stroke:none;" d="M202 246L203 247L202 246M258 246L259 247L258 246M318.667 246.333L319.333 246.667L318.667 246.333z"/>
<path style="fill:#696767; stroke:none;" d="M320 246L321 247L320 246M345 246L345 247L348 247L345 246M394 246L395 247L394 246z"/>
<path style="fill:#dea29f; stroke:none;" d="M180 247L181 248L180 247M201 247L202 248L201 247M256 247L257 248L256 247M314 247L315 248L314 247z"/>
<path style="fill:#696767; stroke:none;" d="M315.667 247.333L316.333 247.667L315.667 247.333z"/>
<path style="fill:#dea29f; stroke:none;" d="M392 247L393 248L392 247M200 248L201 249L200 248M254 248L255 249L254 248M310 248L311 249L310 248z"/>
<path style="fill:#696767; stroke:none;" d="M311 248L312 249L311 248M388.667 248.333L389.333 248.667L388.667 248.333z"/>
<path style="fill:#dea29f; stroke:none;" d="M390 248L391 249L390 248M199 249L200 250L199 249M252 249L253 250L252 249M307 249L308 250L307 249z"/>
<path style="fill:#696767; stroke:none;" d="M308 249L309 250L308 249M383.667 249.333L384.333 249.667L383.667 249.333z"/>
<path style="fill:#dea29f; stroke:none;" d="M385.667 249.333L386.333 249.667L385.667 249.333M198 250L199 251L198 250M250 250L251 251L250 250M304 250L305 251L304 250z"/>
<path style="fill:#696767; stroke:none;" d="M305 250L306 251L305 250M378 250L379 251L378 250z"/>
<path style="fill:#dea29f; stroke:none;" d="M197 251L198 252L197 251M248 251L249 252L248 251M301 251L302 252L301 251z"/>
<path style="fill:#696767; stroke:none;" d="M302 251L303 252L302 251M379 251L380 252L379 251z"/>
<path style="fill:#dea29f; stroke:none;" d="M246.667 252.333L247.333 252.667L246.667 252.333M298 252L299 253L298 252z"/>
<path style="fill:#696767; stroke:none;" d="M299 252L300 253L299 252z"/>
<path style="fill:#dea29f; stroke:none;" d="M381 252L382 253L381 252M194 253L195 254L194 253M245 253L246 254L245 253z"/>
<path style="fill:#696767; stroke:none;" d="M296.667 253.333L297.333 253.667L296.667 253.333z"/>
<path style="fill:#dea29f; stroke:none;" d="M382 253L383 254L382 253M193 254L194 255L193 254M243 254L244 255L243 254M293 254L294 255L293 254z"/>
<path style="fill:#696767; stroke:none;" d="M294 254L295 255L294 254z"/>
<path style="fill:#dea29f; stroke:none;" d="M384 254L385 255L384 254M192 255L193 256L192 255M241 255L242 256L241 255M290 255L291 256L290 255z"/>
<path style="fill:#696767; stroke:none;" d="M291 255L292 256L291 255z"/>
<path style="fill:#dea29f; stroke:none;" d="M386 255L387 256L386 255M191 256L192 257L191 256M240 256L241 257L240 256M287 256L288 257L287 256z"/>
<path style="fill:#696767; stroke:none;" d="M288 256L289 257L288 256M387 256L388 257L387 256z"/>
<path style="fill:#dea29f; stroke:none;" d="M388 256L389 257L388 256M190 257L191 258L190 257M238 257L239 258L238 257M285 257L286 258L285 257z"/>
<path style="fill:#696767; stroke:none;" d="M389 257L390 258L389 257z"/>
<path style="fill:#dea29f; stroke:none;" d="M189 258L190 259L189 258M236 258L237 259L236 258M282 258L283 259L282 258z"/>
<path style="fill:#696767; stroke:none;" d="M283 258L284 259L283 258z"/>
<path style="fill:#dea29f; stroke:none;" d="M391 258L392 259L391 258M188 259L189 260L188 259M234 259L235 260L234 259M280 259L281 260L280 259z"/>
<path style="fill:#696767; stroke:none;" d="M281 259L282 260L281 259M392 259L393 260L392 259z"/>
<path style="fill:#dea29f; stroke:none;" d="M187 260L188 261L187 260M233 260L234 261L233 260z"/>
<path style="fill:#696767; stroke:none;" d="M278 260L279 261L278 260M393 260L394 261L393 260z"/>
<path style="fill:#dea29f; stroke:none;" d="M186 261L187 262L186 261M231 261L232 262L231 261M275 261L276 262L275 261z"/>
<path style="fill:#696767; stroke:none;" d="M276 261L277 262L276 261z"/>
<path style="fill:#dea29f; stroke:none;" d="M164.333 262.667L164.667 263.333L164.333 262.667M185 262L186 263L185 262M229 262L230 263L229 262z"/>
<path style="fill:#696767; stroke:none;" d="M273 262L274 263L273 262M395 262L396 263L395 262z"/>
<path style="fill:#dea29f; stroke:none;" d="M228 263L229 264L228 263M270 263L271 264L270 263z"/>
<path style="fill:#696767; stroke:none;" d="M271 263L272 264L271 263M396 263L397 264L396 263M163 264L164 265L163 264z"/>
<path style="fill:#dea29f; stroke:none;" d="M226 264L227 265L226 264M268 264L269 265L268 264z"/>
<path style="fill:#696767; stroke:none;" d="M269 264L270 265L269 264z"/>
<path style="fill:#dea29f; stroke:none;" d="M397 264L398 265L397 264z"/>
<path style="fill:#696767; stroke:none;" d="M162 265L163 266L162 265z"/>
<path style="fill:#dea29f; stroke:none;" d="M225 265L226 266L225 265M266 265L267 266L266 265M223 266L224 267L223 266z"/>
<path style="fill:#696767; stroke:none;" d="M264 266L265 267L264 266M398 266L399 267L398 266z"/>
<path style="fill:#dea29f; stroke:none;" d="M222 267L223 268L222 267M261 267L262 268L261 267z"/>
<path style="fill:#696767; stroke:none;" d="M262 267L263 268L262 267z"/>
<path style="fill:#dea29f; stroke:none;" d="M399 267L400 268L399 267M220 268L221 269L220 268M259 268L260 269L259 268z"/>
<path style="fill:#696767; stroke:none;" d="M260 268L261 269L260 268M399 268L400 269L399 268z"/>
<path style="fill:#dea29f; stroke:none;" d="M159 269L160 270L159 269M219 269L220 270L219 269M257 269L258 270L257 269M400 269L401 270L400 269M158 270L159 271L158 270M217 270L218 271L217 270M255 270L256 271L255 270M157 271L158 272L157 271M216 271L217 272L216 271M253 271L254 272L253 271M401 271L402 272L401 271M156 272L157 273L156 272M214 272L215 273L214 272M251 272L252 273L251 272z"/>
<path style="fill:#696767; stroke:none;" d="M155 273L156 274L155 273z"/>
<path style="fill:#dea29f; stroke:none;" d="M213 273L214 274L213 273M249 273L250 274L249 273z"/>
<path style="fill:#696767; stroke:none;" d="M402 273L403 274L402 273M154 274L155 275L154 274z"/>
<path style="fill:#dea29f; stroke:none;" d="M211 274L212 275L211 274M247 274L248 275L247 274z"/>
<path style="fill:#696767; stroke:none;" d="M153 275L154 276L153 275z"/>
<path style="fill:#dea29f; stroke:none;" d="M210 275L211 276L210 275M245 275L246 276L245 275z"/>
<path style="fill:#696767; stroke:none;" d="M403 275L404 276L403 275M152 276L153 277L152 276z"/>
<path style="fill:#dea29f; stroke:none;" d="M171 276L172 277L171 276M208 276L209 277L208 276M243 276L244 277L243 276M170 277L171 278L170 277M207 277L208 278L207 277M241 277L242 278L241 277z"/>
<path style="fill:#696767; stroke:none;" d="M404 277L405 278L404 277z"/>
<path style="fill:#dea29f; stroke:none;" d="M169 278L170 279L169 278M239 278L240 279L239 278M150 279L151 280L150 279M168 279L169 280L168 279M204 279L205 280L204 279M237 279L238 280L237 279z"/>
<path style="fill:#696767; stroke:none;" d="M405 279L406 280L405 279z"/>
<path style="fill:#dea29f; stroke:none;" d="M149 280L150 281L149 280M167 280L168 281L167 280M203 280L204 281L203 280M235 280L236 281L235 280M440 280L441 283L440 280z"/>
<path style="fill:#696767; stroke:none;" d="M148 281L149 282L148 281z"/>
<path style="fill:#dea29f; stroke:none;" d="M166 281L167 282L166 281M233 281L234 282L233 281z"/>
<path style="fill:#696767; stroke:none;" d="M234 281L235 282L234 281M406 281L407 282L406 281M147 282L148 283L147 282z"/>
<path style="fill:#dea29f; stroke:none;" d="M165 282L166 283L165 282M200 282L201 283L200 282M231 282L232 283L231 282z"/>
<path style="fill:#696767; stroke:none;" d="M232 282L233 283L232 282z"/>
<path style="fill:#dea29f; stroke:none;" d="M407 282L408 283L407 282M438 282L439 283L438 282M164 283L165 284L164 283M199 283L200 284L199 283z"/>
<path style="fill:#696767; stroke:none;" d="M230 283L231 284L230 283M407 283L408 284L407 283z"/>
<path style="fill:#dea29f; stroke:none;" d="M437 283L438 284L437 283z"/>
<path style="fill:#696767; stroke:none;" d="M228 284L229 285L228 284M436 284L437 285L436 284M439 284L440 285L439 284z"/>
<path style="fill:#dea29f; stroke:none;" d="M145 285L146 286L145 285M196 285L197 286L196 285M226 285L227 286L226 285z"/>
<path style="fill:#696767; stroke:none;" d="M408 285L409 286L408 285z"/>
<path style="fill:#dea29f; stroke:none;" d="M434 285L435 286L434 285M439 285L440 286L439 285M144 286L145 287L144 286M195 286L196 287L195 286M224 286L225 287L224 286z"/>
<path style="fill:#696767; stroke:none;" d="M225 286L226 287L225 286z"/>
<path style="fill:#dea29f; stroke:none;" d="M432 286L433 287L432 286z"/>
<path style="fill:#696767; stroke:none;" d="M433 286L434 287L433 286M143 287L144 288L143 287z"/>
<path style="fill:#dea29f; stroke:none;" d="M161 287L162 288L161 287M194 287L195 288L194 287z"/>
<path style="fill:#696767; stroke:none;" d="M223 287L224 288L223 287z"/>
<path style="fill:#dea29f; stroke:none;" d="M409 287L410 288L409 287M430 287L431 288L430 287z"/>
<path style="fill:#696767; stroke:none;" d="M431 287L432 288L431 287M438 287L439 288L438 287M142 288L143 289L142 288z"/>
<path style="fill:#dea29f; stroke:none;" d="M160 288L161 289L160 288M192 288L193 289L192 288z"/>
<path style="fill:#696767; stroke:none;" d="M221 288L222 289L221 288M410 288L411 289L410 288z"/>
<path style="fill:#dea29f; stroke:none;" d="M411.667 288.333L412.333 288.667L411.667 288.333M427 288L428 289L427 288z"/>
<path style="fill:#696767; stroke:none;" d="M428 288L429 289L428 288z"/>
<path style="fill:#dea29f; stroke:none;" d="M438 288L439 289L438 288M159 289L160 290L159 289M191 289L192 290L191 289M219 289L220 290L219 289z"/>
<path style="fill:#696767; stroke:none;" d="M414 289L414 290L424 290L414 289z"/>
<path style="fill:#dea29f; stroke:none;" d="M158 290L159 291L158 290M190 290L191 291L190 290M217 290L218 291L217 290z"/>
<path style="fill:#696767; stroke:none;" d="M218 290L219 291L218 290M437 290L438 291L437 290z"/>
<path style="fill:#dea29f; stroke:none;" d="M140 291L141 292L140 291M157 291L158 292L157 291z"/>
<path style="fill:#696767; stroke:none;" d="M216 291L217 292L216 291M139 292L140 293L139 292z"/>
<path style="fill:#dea29f; stroke:none;" d="M156 292L157 293L156 292M187 292L188 293L187 292z"/>
<path style="fill:#696767; stroke:none;" d="M214 292L215 293L214 292M436 292L437 293L436 292M138 293L139 294L138 293z"/>
<path style="fill:#dea29f; stroke:none;" d="M186 293L187 294L186 293M212 293L213 294L212 293z"/>
<path style="fill:#696767; stroke:none;" d="M213 293L214 294L213 293z"/>
<path style="fill:#dea29f; stroke:none;" d="M185 294L186 295L185 294z"/>
<path style="fill:#696767; stroke:none;" d="M211 294L212 295L211 294z"/>
<path style="fill:#dea29f; stroke:none;" d="M435 294L436 295L435 294M137 295L138 296L137 295M154 295L155 296L154 295M209 295L210 296L209 295z"/>
<path style="fill:#696767; stroke:none;" d="M434 295L435 296L434 295z"/>
<path style="fill:#dea29f; stroke:none;" d="M136 296L137 297L136 296M153 296L154 297L153 296z"/>
<path style="fill:#696767; stroke:none;" d="M208 296L209 297L208 296M433 296L434 297L433 296M135 297L136 298L135 297z"/>
<path style="fill:#dea29f; stroke:none;" d="M152 297L153 298L152 297M181 297L182 298L181 297M206 297L207 298L206 297z"/>
<path style="fill:#696767; stroke:none;" d="M432 297L433 298L432 297z"/>
<path style="fill:#dea29f; stroke:none;" d="M180 298L181 299L180 298z"/>
<path style="fill:#696767; stroke:none;" d="M205 298L206 299L205 298z"/>
<path style="fill:#dea29f; stroke:none;" d="M431 298L432 299L431 298M179 299L180 300L179 299M203 299L204 300L203 299z"/>
<path style="fill:#696767; stroke:none;" d="M429 299L430 300L429 299z"/>
<path style="fill:#dea29f; stroke:none;" d="M133 300L134 301L133 300M150 300L151 301L150 300M178 300L179 301L178 300z"/>
<path style="fill:#696767; stroke:none;" d="M202 300L203 301L202 300M414.333 300.667L414.667 301.333L414.333 300.667M427 300L428 301L427 300z"/>
<path style="fill:#dea29f; stroke:none;" d="M428 300L429 301L428 300z"/>
<path style="fill:#696767; stroke:none;" d="M132 301L133 302L132 301z"/>
<path style="fill:#dea29f; stroke:none;" d="M149 301L150 302L149 301M200 301L201 302L200 301M416 301L417 302L416 301z"/>
<path style="fill:#696767; stroke:none;" d="M417 301L418 302L417 301M424 301L425 302L424 301z"/>
<path style="fill:#dea29f; stroke:none;" d="M425 301L426 302L425 301z"/>
<path style="fill:#696767; stroke:none;" d="M131 302L132 303L131 302z"/>
<path style="fill:#dea29f; stroke:none;" d="M148 302L149 303L148 302M175 302L176 303L175 302z"/>
<path style="fill:#696767; stroke:none;" d="M199 302L200 303L199 302z"/>
<path style="fill:#dea29f; stroke:none;" d="M421 302L422 303L421 302M147 303L148 304L147 303M174 303L175 304L174 303M415 303L416 304L415 303M130 304L131 305L130 304M173 304L174 305L173 304M196 304L197 305L196 304z"/>
<path style="fill:#696767; stroke:none;" d="M415 304L416 305L415 304M129 305L130 306L129 305z"/>
<path style="fill:#dea29f; stroke:none;" d="M146 305L147 306L146 305M172 305L173 306L172 305z"/>
<path style="fill:#696767; stroke:none;" d="M195 305L196 306L195 305z"/>
<path style="fill:#dea29f; stroke:none;" d="M145 306L146 307L145 306M171 306L172 307L171 306M193 306L194 307L193 306M416 306L417 307L416 306M128 307L129 308L128 307M144 307L145 308L144 307M170 307L171 308L170 307z"/>
<path style="fill:#696767; stroke:none;" d="M192 307L193 308L192 307M416 307L417 308L416 307M127 308L128 309L127 308z"/>
<path style="fill:#dea29f; stroke:none;" d="M169 308L170 309L169 308M190 308L191 309L190 308M189 309L190 310L189 309M417 309L418 310L417 309M126 310L127 311L126 310M142 310L143 311L142 310z"/>
<path style="fill:#696767; stroke:none;" d="M188 310L189 311L188 310M417 310L418 311L417 310z"/>
<path style="fill:#dea29f; stroke:none;" d="M125 311L126 312L125 311M141 311L142 312L141 311z"/>
<path style="fill:#696767; stroke:none;" d="M187 311L188 312L187 311M124 312L125 313L124 312z"/>
<path style="fill:#dea29f; stroke:none;" d="M140 312L141 313L140 312M185 312L186 313L185 312M418 312L419 313L418 312M163 313L164 314L163 313z"/>
<path style="fill:#696767; stroke:none;" d="M184 313L185 314L184 313z"/>
<path style="fill:#dea29f; stroke:none;" d="M123 314L124 315L123 314M139 314L140 315L139 314M162 314L163 315L162 314z"/>
<path style="fill:#696767; stroke:none;" d="M183 314L184 315L183 314z"/>
<path style="fill:#dea29f; stroke:none;" d="M419 314L420 315L419 314M138 315L139 316L138 315M161 315L162 316L161 315M181 315L182 316L181 315z"/>
<path style="fill:#696767; stroke:none;" d="M419 315L420 316L419 315z"/>
<path style="fill:#dea29f; stroke:none;" d="M137 316L138 317L137 316M160 316L161 317L160 316M180 316L181 317L180 316M159 317L160 318L159 317z"/>
<path style="fill:#696767; stroke:none;" d="M179 317L180 318L179 317z"/>
<path style="fill:#dea29f; stroke:none;" d="M420 317L421 318L420 317M158 318L159 319L158 318M135 319L136 320L135 319M157 319L158 320L157 319M176 319L177 320L176 319M421 319L422 320L421 319M134 320L135 321L134 320M156 320L157 321L156 320M175 320L176 321L175 320z"/>
<path style="fill:#696767; stroke:none;" d="M421 320L422 321L421 320z"/>
<path style="fill:#dea29f; stroke:none;" d="M155 321L156 322L155 321z"/>
<path style="fill:#696767; stroke:none;" d="M174 321L175 322L174 321z"/>
<path style="fill:#dea29f; stroke:none;" d="M422 321L423 322L422 321M133 322L134 323L133 322M154 322L155 323L154 322z"/>
<path style="fill:#696767; stroke:none;" d="M173 322L174 323L173 322z"/>
<path style="fill:#dea29f; stroke:none;" d="M132 323L133 324L132 323M153 323L154 324L153 323M423 323L424 324L423 323M152 324L153 325L152 324M131 325L132 326L131 325M151 325L152 326L151 325M169 325L170 326L169 325z"/>
<path style="fill:#696767; stroke:none;" d="M424 325L425 326L424 325z"/>
<path style="fill:#dea29f; stroke:none;" d="M130 326L131 327L130 326M150 326L151 327L150 326M168 326L169 327L168 326M425 326L426 327L425 326M149 327L150 328L149 327z"/>
<path style="fill:#696767; stroke:none;" d="M167 327L168 328L167 327z"/>
<path style="fill:#dea29f; stroke:none;" d="M129 328L130 329L129 328M148 328L149 329L148 328z"/>
<path style="fill:#696767; stroke:none;" d="M166 328L167 329L166 328M426 328L427 329L426 328z"/>
<path style="fill:#dea29f; stroke:none;" d="M128 329L129 330L128 329M147 329L148 330L147 329M427 329L428 330L427 329M146 330L147 331L146 330M127 331L128 332L127 331M145 331L146 332L145 331M162 331L163 332L162 331z"/>
<path style="fill:#696767; stroke:none;" d="M428 331L429 332L428 331z"/>
<path style="fill:#dea29f; stroke:none;" d="M126 332L127 333L126 332M144 332L145 333L144 332M161 332L162 333L161 332z"/>
<path style="fill:#696767; stroke:none;" d="M259 332L259 333L266 333L259 332z"/>
<path style="fill:#dea29f; stroke:none;" d="M266 332L266 333L286 333L266 332z"/>
<path style="fill:#696767; stroke:none;" d="M286 332L286 333L298 333L286 332z"/>
<path style="fill:#dea29f; stroke:none;" d="M429 332L430 333L429 332M143 333L144 334L143 333M160 333L161 334L160 333z"/>
<path style="fill:#696767; stroke:none;" d="M247 333L247 334L250 334L247 333z"/>
<path style="fill:#dea29f; stroke:none;" d="M250 333L250 334L253 334L250 333M302 333L302 334L306 334L302 333z"/>
<path style="fill:#696767; stroke:none;" d="M306.667 333.333L307.333 333.667L306.667 333.333z"/>
<path style="fill:#dea29f; stroke:none;" d="M125 334L126 335L125 334M142 334L143 335L142 334M159 334L160 335L159 334z"/>
<path style="fill:#696767; stroke:none;" d="M238.667 334.333L239.333 334.667L238.667 334.333z"/>
<path style="fill:#dea29f; stroke:none;" d="M240 334L240 335L243 335L240 334M311 334L311 335L314 335L311 334z"/>
<path style="fill:#696767; stroke:none;" d="M314.667 334.333L315.333 334.667L314.667 334.333M430 334L431 335L430 334z"/>
<path style="fill:#dea29f; stroke:none;" d="M124 335L125 336L124 335M141 335L142 336L141 335M158 335L159 336L158 335z"/>
<path style="fill:#696767; stroke:none;" d="M230.667 335.333L231.333 335.667L230.667 335.333z"/>
<path style="fill:#dea29f; stroke:none;" d="M232 335L232 336L235 336L232 335M319.667 335.333L320.333 335.667L319.667 335.333z"/>
<path style="fill:#696767; stroke:none;" d="M321.667 335.333L322.333 335.667L321.667 335.333z"/>
<path style="fill:#dea29f; stroke:none;" d="M431 335L432 336L431 335M140 336L141 337L140 336z"/>
<path style="fill:#696767; stroke:none;" d="M157 336L158 337L157 336M224.667 336.333L225.333 336.667L224.667 336.333z"/>
<path style="fill:#dea29f; stroke:none;" d="M226 336L227 337L226 336M326.667 336.333L327.333 336.667L326.667 336.333z"/>
<path style="fill:#696767; stroke:none;" d="M328.667 336.333L329.333 336.667L328.667 336.333z"/>
<path style="fill:#dea29f; stroke:none;" d="M123 337L124 338L123 337M139 337L140 338L139 337z"/>
<path style="fill:#696767; stroke:none;" d="M156 337L157 338L156 337M219.667 337.333L220.333 337.667L219.667 337.333z"/>
<path style="fill:#dea29f; stroke:none;" d="M221 337L222 338L221 337M332.667 337.333L333.333 337.667L332.667 337.333z"/>
<path style="fill:#696767; stroke:none;" d="M334 337L335 338L334 337M432 337L433 338L432 337z"/>
<path style="fill:#dea29f; stroke:none;" d="M122 338L123 339L122 338M138 338L139 339L138 338z"/>
<path style="fill:#696767; stroke:none;" d="M155 338L156 339L155 338M214.667 338.333L215.333 338.667L214.667 338.333z"/>
<path style="fill:#dea29f; stroke:none;" d="M216 338L217 339L216 338M337.667 338.333L338.333 338.667L337.667 338.333z"/>
<path style="fill:#696767; stroke:none;" d="M339 338L340 339L339 338M154 339L155 340L154 339M210 339L211 340L210 339z"/>
<path style="fill:#dea29f; stroke:none;" d="M211 339L212 340L211 339M342 339L343 340L342 339z"/>
<path style="fill:#696767; stroke:none;" d="M343.667 339.333L344.333 339.667L343.667 339.333M433 339L434 340L433 339z"/>
<path style="fill:#dea29f; stroke:none;" d="M121 340L122 341L121 340z"/>
<path style="fill:#696767; stroke:none;" d="M153 340L154 341L153 340M205.667 340.333L206.333 340.667L205.667 340.333z"/>
<path style="fill:#dea29f; stroke:none;" d="M207 340L208 341L207 340M346 340L347 341L346 340z"/>
<path style="fill:#696767; stroke:none;" d="M347.667 340.333L348.333 340.667L347.667 340.333z"/>
<path style="fill:#dea29f; stroke:none;" d="M434 340L435 341L434 340z"/>
<path style="fill:#696767; stroke:none;" d="M152 341L153 342L152 341M201.667 341.333L202.333 341.667L201.667 341.333z"/>
<path style="fill:#dea29f; stroke:none;" d="M203 341L204 342L203 341M350 341L351 342L350 341z"/>
<path style="fill:#696767; stroke:none;" d="M351.667 341.333L352.333 341.667L351.667 341.333M434 341L435 342L434 341z"/>
<path style="fill:#dea29f; stroke:none;" d="M120 342L121 343L120 342M135 342L136 343L135 342z"/>
<path style="fill:#696767; stroke:none;" d="M151 342L152 343L151 342M198 342L199 343L198 342z"/>
<path style="fill:#dea29f; stroke:none;" d="M199 342L200 343L199 342M354 342L355 343L354 342z"/>
<path style="fill:#696767; stroke:none;" d="M355 342L356 343L355 342z"/>
<path style="fill:#dea29f; stroke:none;" d="M435 342L436 343L435 342M119 343L120 344L119 343M134 343L135 344L134 343z"/>
<path style="fill:#696767; stroke:none;" d="M150 343L151 344L150 343M194 343L195 344L194 343z"/>
<path style="fill:#dea29f; stroke:none;" d="M195.667 343.333L196.333 343.667L195.667 343.333M358 343L359 344L358 343z"/>
<path style="fill:#696767; stroke:none;" d="M359 343L360 344L359 343M435 343L436 344L435 343z"/>
<path style="fill:#dea29f; stroke:none;" d="M133 344L134 345L133 344z"/>
<path style="fill:#696767; stroke:none;" d="M149 344L150 345L149 344M191 344L192 345L191 344z"/>
<path style="fill:#dea29f; stroke:none;" d="M192 344L193 345L192 344M361 344L362 345L361 344z"/>
<path style="fill:#696767; stroke:none;" d="M362 344L363 345L362 344z"/>
<path style="fill:#dea29f; stroke:none;" d="M118 345L119 346L118 345M132 345L133 346L132 345z"/>
<path style="fill:#696767; stroke:none;" d="M148 345L149 346L148 345M188 345L189 346L188 345z"/>
<path style="fill:#dea29f; stroke:none;" d="M189 345L190 346L189 345M364 345L365 346L364 345z"/>
<path style="fill:#696767; stroke:none;" d="M365 345L366 346L365 345z"/>
<path style="fill:#dea29f; stroke:none;" d="M436 345L437 346L436 345M131 346L132 347L131 346z"/>
<path style="fill:#696767; stroke:none;" d="M147 346L148 347L147 346M185 346L186 347L185 346z"/>
<path style="fill:#dea29f; stroke:none;" d="M186 346L187 347L186 346M367 346L368 347L367 346z"/>
<path style="fill:#696767; stroke:none;" d="M368 346L369 347L368 346M436 346L437 347L436 346z"/>
<path style="fill:#dea29f; stroke:none;" d="M117 347L118 348L117 347z"/>
<path style="fill:#696767; stroke:none;" d="M146 347L147 348L146 347M182 347L183 348L182 347z"/>
<path style="fill:#dea29f; stroke:none;" d="M183 347L184 348L183 347M370 347L371 348L370 347z"/>
<path style="fill:#696767; stroke:none;" d="M371 347L372 348L371 347z"/>
<path style="fill:#dea29f; stroke:none;" d="M116 348L117 349L116 348z"/>
<path style="fill:#696767; stroke:none;" d="M179 348L180 349L179 348z"/>
<path style="fill:#dea29f; stroke:none;" d="M180 348L181 349L180 348M373 348L374 349L373 348z"/>
<path style="fill:#696767; stroke:none;" d="M374 348L375 349L374 348M144 349L145 350L144 349M177 349L178 350L177 349z"/>
<path style="fill:#dea29f; stroke:none;" d="M376 349L377 350L376 349z"/>
<path style="fill:#696767; stroke:none;" d="M377 349L378 350L377 349z"/>
<path style="fill:#dea29f; stroke:none;" d="M437.333 349.667L437.667 350.333L437.333 349.667M115 350L116 351L115 350M128 350L129 351L128 350z"/>
<path style="fill:#696767; stroke:none;" d="M143 350L144 351L143 350M174 350L175 351L174 350z"/>
<path style="fill:#dea29f; stroke:none;" d="M175 350L176 351L175 350M379 350L380 351L379 350z"/>
<path style="fill:#696767; stroke:none;" d="M380 350L381 351L380 350z"/>
<path style="fill:#dea29f; stroke:none;" d="M127 351L128 352L127 351z"/>
<path style="fill:#696767; stroke:none;" d="M142 351L143 352L142 351M171 351L172 352L171 351z"/>
<path style="fill:#dea29f; stroke:none;" d="M172 351L173 352L172 351z"/>
<path style="fill:#696767; stroke:none;" d="M382 351L383 352L382 351M437 351L438 352L437 351z"/>
<path style="fill:#dea29f; stroke:none;" d="M114 352L115 353L114 352M126 352L127 353L126 352z"/>
<path style="fill:#696767; stroke:none;" d="M141 352L142 353L141 352M169 352L170 353L169 352z"/>
<path style="fill:#dea29f; stroke:none;" d="M384 352L385 353L384 352z"/>
<path style="fill:#696767; stroke:none;" d="M385 352L386 353L385 352z"/>
<path style="fill:#dea29f; stroke:none;" d="M437 352L437 355L438 355L437 352z"/>
<path style="fill:#696767; stroke:none;" d="M140 353L141 354L140 353M166 353L167 354L166 353z"/>
<path style="fill:#dea29f; stroke:none;" d="M167 353L168 354L167 353M386 353L387 354L386 353z"/>
<path style="fill:#696767; stroke:none;" d="M387 353L388 354L387 353z"/>
<path style="fill:#dea29f; stroke:none;" d="M113 354L114 355L113 354z"/>
<path style="fill:#696767; stroke:none;" d="M139 354L140 355L139 354M164 354L165 355L164 354M389 354L390 355L389 354z"/>
<path style="fill:#dea29f; stroke:none;" d="M112 355L113 356L112 355z"/>
<path style="fill:#696767; stroke:none;" d="M138 355L139 356L138 355z"/>
<path style="fill:#dea29f; stroke:none;" d="M162 355L163 356L162 355M391 355L392 356L391 355M123 356L124 357L123 356M137 356L138 357L137 356z"/>
<path style="fill:#696767; stroke:none;" d="M159 356L160 357L159 356z"/>
<path style="fill:#dea29f; stroke:none;" d="M160 356L161 357L160 356M393 356L394 357L393 356z"/>
<path style="fill:#696767; stroke:none;" d="M436 356L437 357L436 356z"/>
<path style="fill:#dea29f; stroke:none;" d="M111 357L112 358L111 357M122 357L123 358L122 357M136 357L137 358L136 357z"/>
<path style="fill:#696767; stroke:none;" d="M157 357L158 358L157 357z"/>
<path style="fill:#dea29f; stroke:none;" d="M158 357L159 358L158 357M395 357L396 358L395 357z"/>
<path style="fill:#696767; stroke:none;" d="M396 357L397 358L396 357z"/>
<path style="fill:#dea29f; stroke:none;" d="M436 357L437 358L436 357M121 358L122 359L121 358M135 358L136 359L135 358z"/>
<path style="fill:#696767; stroke:none;" d="M155 358L156 359L155 358z"/>
<path style="fill:#dea29f; stroke:none;" d="M397 358L398 359L397 358z"/>
<path style="fill:#696767; stroke:none;" d="M398 358L399 359L398 358z"/>
<path style="fill:#dea29f; stroke:none;" d="M110 359L111 360L110 359M134 359L135 360L134 359z"/>
<path style="fill:#696767; stroke:none;" d="M153 359L154 360L153 359z"/>
<path style="fill:#dea29f; stroke:none;" d="M399 359L400 360L399 359z"/>
<path style="fill:#696767; stroke:none;" d="M400 359L401 360L400 359z"/>
<path style="fill:#dea29f; stroke:none;" d="M435 359L436 360L435 359z"/>
<path style="fill:#696767; stroke:none;" d="M151 360L152 361L151 360z"/>
<path style="fill:#dea29f; stroke:none;" d="M401 360L402 361L401 360z"/>
<path style="fill:#696767; stroke:none;" d="M402 360L403 361L402 360M434 360L435 361L434 360z"/>
<path style="fill:#dea29f; stroke:none;" d="M109 361L110 362L109 361M119 361L120 362L119 361z"/>
<path style="fill:#696767; stroke:none;" d="M149 361L150 362L149 361z"/>
<path style="fill:#dea29f; stroke:none;" d="M150 361L151 362L150 361M403 361L404 362L403 361z"/>
<path style="fill:#696767; stroke:none;" d="M404 361L405 362L404 361z"/>
<path style="fill:#dea29f; stroke:none;" d="M118 362L119 363L118 362M148 362L149 363L148 362M405 362L406 363L405 362M433 362L434 363L433 362M108 363L109 364L108 363M117 363L118 364L117 363z"/>
<path style="fill:#696767; stroke:none;" d="M131 363L132 364L131 363z"/>
<path style="fill:#dea29f; stroke:none;" d="M146 363L147 364L146 363M407 363L408 364L407 363M432 363L433 364L432 363z"/>
<path style="fill:#696767; stroke:none;" d="M130 364L131 365L130 364z"/>
<path style="fill:#dea29f; stroke:none;" d="M144 364L145 365L144 364M409 364L410 365L409 364M431 364L432 365L431 364M107 365L108 366L107 365z"/>
<path style="fill:#696767; stroke:none;" d="M129 365L130 366L129 365M142 365L143 366L142 365z"/>
<path style="fill:#dea29f; stroke:none;" d="M411 365L412 366L411 365z"/>
<path style="fill:#696767; stroke:none;" d="M429 365L430 366L429 365z"/>
<path style="fill:#dea29f; stroke:none;" d="M115 366L116 367L115 366M128 366L129 367L128 366z"/>
<path style="fill:#696767; stroke:none;" d="M140 366L141 367L140 366M413 366L414 367L413 366z"/>
<path style="fill:#dea29f; stroke:none;" d="M428 366L429 367L428 366M106 367L107 368L106 367M114 367L115 368L114 367M127 367L128 368L127 367M139 367L140 368L139 367z"/>
<path style="fill:#696767; stroke:none;" d="M415.667 367.333L416.333 367.667L415.667 367.333M424.667 367.333L425.333 367.667L424.667 367.333z"/>
<path style="fill:#dea29f; stroke:none;" d="M426 367L427 368L426 367M137 368L138 369L137 368M419 368L419 369L423 369L419 368M105 369L106 370L105 369M113 369L114 370L113 369z"/>
<path style="fill:#696767; stroke:none;" d="M135 369L136 370L135 369z"/>
<path style="fill:#dea29f; stroke:none;" d="M112 370L113 371L112 370z"/>
<path style="fill:#696767; stroke:none;" d="M125 370L126 371L125 370z"/>
<path style="fill:#dea29f; stroke:none;" d="M134 370L135 371L134 370M104 371L105 372L104 371M111 371L112 372L111 371z"/>
<path style="fill:#696767; stroke:none;" d="M124 371L125 372L124 371M132 371L133 372L132 371M123 372L124 373L123 372z"/>
<path style="fill:#dea29f; stroke:none;" d="M131 372L132 373L131 372M103 373L104 374L103 373M122 373L123 374L122 373z"/>
<path style="fill:#696767; stroke:none;" d="M129 373L130 374L129 373z"/>
<path style="fill:#dea29f; stroke:none;" d="M109 374L110 375L109 374M121 374L122 375L121 374z"/>
<path style="fill:#696767; stroke:none;" d="M127 374L128 375L127 374z"/>
<path style="fill:#dea29f; stroke:none;" d="M128 374L129 375L128 374M102 375L103 376L102 375M108 375L109 376L108 375z"/>
<path style="fill:#696767; stroke:none;" d="M126 375L127 376L126 375M120 376L121 377L120 376z"/>
<path style="fill:#dea29f; stroke:none;" d="M125 376L126 377L125 376M101.333 377.667L101.667 378.333L101.333 377.667M107 377L108 378L107 377z"/>
<path style="fill:#696767; stroke:none;" d="M119 377L120 378L119 377M123 377L124 378L123 377z"/>
<path style="fill:#dea29f; stroke:none;" d="M106 378L107 379L106 378M118 378L119 379L118 378z"/>
<path style="fill:#696767; stroke:none;" d="M122 378L123 379L122 378z"/>
<path style="fill:#dea29f; stroke:none;" d="M100.333 379.667L100.667 380.333L100.333 379.667M121 379L122 380L121 379M105 380L106 381L105 380M104 381L105 382L104 381z"/>
<path style="fill:#696767; stroke:none;" d="M116 381L117 382L116 381M118 381L119 382L118 381z"/>
<path style="fill:#dea29f; stroke:none;" d="M99 382L100 383L99 382M115 382L116 383L115 382z"/>
<path style="fill:#696767; stroke:none;" d="M117 382L118 383L117 382z"/>
<path style="fill:#dea29f; stroke:none;" d="M103 383L104 384L103 383M114 383L116 385L114 383M116 383L117 384L116 383M98 384L99 385L98 384M102 384L103 385L102 384z"/>
<path style="fill:#696767; stroke:none;" d="M114 384L115 385L114 384M113 385L114 386L113 385z"/>
<path style="fill:#dea29f; stroke:none;" d="M97.3333 386.667L97.6667 387.333L97.3333 386.667M100 387L101 388L100 387M96 389L97 390L96 389M98 390L99 391L98 390M95 392L96 393L95 392M97 392L98 393L97 392M96 393L97 394L96 393M94 394L94 397L96 396L96 395L94 394M111 442L119 441C119 447.017 116.1 463.519 122.148 466.968C133.916 473.677 131 446.156 131 441L138 441L138 465L139 465L139 440C120.289 440.066 138.643 462.894 125.946 466.11C116.668 468.459 120.994 447.566 119.682 443.148C118.49 439.132 113.264 439.41 111 442M145 440L145 475C152.639 475 161.265 476.256 167.985 471.867C177.954 465.354 177.496 448.208 166.996 442.417C160.464 438.815 152.182 440 145 440M188 475L188 463C194.66 469.57 194.423 474.992 205 475C204.261 470.905 200.733 467.048 200.582 463.039C200.424 458.872 204.871 455.61 204.938 451C205.079 441.252 187.936 435.22 180.603 441.028C177.784 443.261 179 449.849 179 453C179 462.751 175.373 474.955 188 475M238 440L238 475C248.085 474.964 247 469.621 247 461C253.179 460.995 256.77 460.993 257 454L247 454L247 447L260 447L260 440L238 440M265 440L265 475C267.424 474.991 271.257 475.565 272.972 473.397C275.848 469.762 275.848 445.238 272.972 441.603C271.257 439.435 267.424 440.009 265 440M280 440L280 475C291.864 474.958 289 465.389 289 456L290 456C292.47 461.284 302.315 481.793 310 473C297.64 475.799 296.691 459.273 288 454L288 474L281 474L281 441C293.51 441.148 293.01 455.233 302 461L302 457L301 457L300 459C296.246 449.081 291.13 440.009 280 440M301 454L302 454C302 447.568 301.122 441.601 309 441L309 450L310 450L310 440C299.915 440.036 301 445.379 301 454M320 455L321 455L325 441L335 441L339 455C340.404 448.312 334.063 435.023 325.51 441.028C322.068 443.444 320.671 451.103 320 455M350 442L360 443C357.622 439.703 352.853 438.735 350 442M371 459L370 459L361 444L360 444L372 461L372 441L379 441L379 474C366.711 473.601 366.769 459.624 358 454C360.056 458.418 372.21 481.935 378.972 473.397C383.577 467.582 380 447.382 380 440C368.136 440.042 371 449.611 371 459M405 475L405 474C377.677 473.771 381.362 437.057 408 442C390.44 430.004 374.011 462.058 393.001 472.91C396.713 475.032 400.863 474.989 405 475M422 440L422 475L442 475L442 474L423 474L423 441L443 442C437.881 438.122 428.237 440 422 440z"/>
<path style="fill:#ef433c; stroke:none;" d="M111 442C111.742 449.945 109.447 460.744 113.453 467.906C118.32 476.605 132.458 475.571 136.821 466.995C140.244 460.267 138 448.423 138 441L131 441C131 446.731 134.195 467.364 125 467.364C115.805 467.364 119 446.731 119 441L111 442M146 441L146 474C152.789 474 161.06 475.293 166.995 471.297C176.642 464.802 176.705 448.506 165.985 443C160.015 439.933 152.496 441 146 441M180 441L180 474L187 474L188 461C193.495 467.638 194.506 473.966 204 474L198 460C204.815 456.638 206.581 446.277 198.956 442.318C193.72 439.6 185.731 441 180 441M239 441L239 474L246 474L246 460L256 460L256 455L246 455L246 446L259 446L259 441L239 441M266 441L266 474L273 474L273 441L266 441M281 441L281 474L288 474L288 454C295.137 460.54 298.214 476.444 310 473L309 441C298.836 441.334 302 453.394 302 461C294.321 453.56 293.258 441.043 281 441M325 441L315 474L322 474C326.661 460.735 337.241 473.908 345 474L335 441L325 441M350 442C352.158 451.063 347.731 463.383 350.912 471.682C352.217 475.088 356.802 473.82 357.682 470.852C359.155 465.887 358 459.163 358 454C365.477 461.245 366.929 473.857 379 474L379 441L372 441L372 461C364.785 454.388 362.009 438.492 350 442M416 464C410.473 464.02 402.862 469.203 398.043 466.806C390.189 462.899 390.503 449.109 400.001 447.542C404.833 446.746 410.633 450.981 416 451C410.123 433.762 384.659 440.711 385.055 458C385.439 474.792 410.316 480.57 416 464M423 441L423 474L442 474L442 469L430 469L430 460L440 460L440 455L430 455L430 446L442 446L442 441L423 441z"/>
<path style="fill:#dea29f; stroke:none;" d="M409.667 442.333L410.333 442.667L409.667 442.333M350 443L350 470L351 470L350 443M411 443L412 444L411 443M111 444L112 445L111 444M412 444L413 445L412 444M413 445L414 446L413 445M442 445L443 446L442 445M111.333 446.667L111.667 447.333L111.333 446.667M153 446L153 469C158.677 468.952 163.266 468.469 166 463L165 463L154 468L154 447C158.905 447.119 161.899 448.088 165 452C165.133 445.95 157.487 446.013 153 446M188.603 447.029C183.898 450.709 189.333 458.51 194.682 454.971C200.188 451.329 193.608 443.114 188.603 447.029M414 446L415 447L414 446M430 448L442 447C438.479 445.522 432.66 444.955 430 448z"/>
<path style="fill:#ffffff; stroke:none;" d="M154 447L154 468C169.83 467.628 169.999 447.145 154 447M188 447L188 455C197.514 454.887 197.514 447.113 188 447z"/>
<path style="fill:#dea29f; stroke:none;" d="M398 447L398 448L404 448L398 447M415.333 447.667L415.667 448.333L415.333 447.667M396.667 448.333L397.333 448.667L396.667 448.333M405 448L406 449L405 448M395 449L396 450L395 449M406 449L407 450L406 449M416 449L408 451L408 452C410.616 452 417.541 453.089 416 449M430.333 449.667L430.667 450.333L430.333 449.667M394 450L395 451L394 450M407 450L408 451L407 450M309 451L309 458L310 458L309 451M329 451L326 463C335.487 462.888 332.689 458.132 331 451L329 451M393 451L393 454L394 454L393 451M111 453L111 459L112 459L111 453M166 453L166 462L167 462L166 453z"/>
<path style="fill:#ffffff; stroke:none;" d="M329 453L327 462L333 462L329 453z"/>
<path style="fill:#dea29f; stroke:none;" d="M430 453L440 455L440 460L430 462L441 461L441 454L430 453M211 454L211 462L232 462L232 454L211 454M392 454L392 461L393 461L392 454z"/>
<path style="fill:#ef433c; stroke:none;" d="M212 455L212 461L231 461L231 455L212 455z"/>
<path style="fill:#dea29f; stroke:none;" d="M319 456L319 459L320 459L319 456M340 456L340 459L341 459L340 456M309 459L309 464L310 464L309 459M318.333 459.667L318.667 460.333L318.333 459.667M341 459L341 462L342 462L341 459M111 461L111 466L112 466L111 461M317 461L317 464L318 464L317 461M393.333 461.667L393.667 462.333L393.333 461.667M342 462L342 465L343 465L342 462M394.333 463.667L394.667 464.333L394.333 463.667M406 466C409.745 464.416 412.592 463.434 416 466C417.815 461.185 407.772 462.78 406 466M430 463L430 466L431 466L430 463M316 464L313 474L322 475L322 474L315 474L316 464M343.333 465.667L343.667 466.333L343.333 465.667M395 465L396 466L395 465M112.333 466.667L112.667 467.333L112.333 466.667M137.333 466.667L137.667 467.333L137.333 466.667z"/>
<path style="fill:#696767; stroke:none;" d="M152 466L153 467L152 466z"/>
<path style="fill:#dea29f; stroke:none;" d="M396.667 466.333L397.333 466.667L396.667 466.333M404.667 466.333L405.333 466.667L404.667 466.333M415.333 466.667L415.667 467.333L415.333 466.667M398 467L398 468L404 468L398 467M430 467L442 469L442 468L430 467M113.333 468.667L113.667 469.333L113.333 468.667M136 468L137 469L136 468M309 468L309 471L310 471L309 468M324 468L324 469L336 469L324 468M344 468L344 471L345 471L344 468M414 468L415 469L414 468M135 469L134 471L136 471L135 469M323.333 469.667L323.667 470.333L323.333 469.667M336 469L336 472L337 472L336 469M413 469L414 470L413 469M442 469L443 470L442 469M114 470L115 471L114 470M412 470L413 471L412 470M115.667 471.333L116.333 471.667L115.667 471.333M133 471L134 472L133 471M322 471L322 474L323 474L322 471M345 471L338 474L338 475L346 475L345 471M410.667 471.333L411.333 471.667L410.667 471.333M442 471L443 472L442 471M117 472L118 473L117 472M132 472L133 473L132 472M337.333 472.667L337.667 473.333L337.333 472.667M350 472C350.824 475.846 356.132 476.243 358 473L350 472M406 473L406 474L410 473L406 473M118 473L118 474L121 474L118 473M129 473L129 474L132 474L129 473M121 474L121 475L128 475L121 474z"/>
</svg>
